<?xml version="1.0" encoding="UTF-8"?>
<svg id="Ebene_1" xmlns="http://www.w3.org/2000/svg" version="1.1" viewBox="0 0 595.28 841.89">
  <!-- Generator: Adobe Illustrator 30.2.1, SVG Export Plug-In . SVG Version: 2.1.1 Build 1)  -->
  <defs>
    <style>
      .st0 {
        fill: #003f47;
      }

      .st1 {
        fill: #f9bc77;
      }
    </style>
  </defs>
  <path class="st0" d="M277.23,171.9c-131,0-237.2,106.2-237.2,237.2s106.2,237.2,237.2,237.2,237.2-106.2,237.2-237.2-106.2-237.2-237.2-237.2ZM356.49,299.7l4.86-6.82c2.09-2.93,6.35-3.74,9.51-1.81l5.37,3.27c3.17,1.93,4.04,5.87,1.96,8.8l-4.86,6.82c-2.09,2.93-6.35,3.74-9.51,1.81l-5.37-3.27c-3.17-1.93-4.04-5.87-1.96-8.8ZM348.27,311.58c1.5-2.2,4.64-2.85,7.01-1.47l8.35,4.87c2.37,1.39,3.08,4.29,1.59,6.49s-4.64,2.85-7.01,1.47l-8.35-4.87c-2.37-1.39-3.08-4.29-1.59-6.49ZM110.49,421.09l18.12-9.27,81.32-41.53,10.95,11.85-72.68,37.11,78.57,29.83-8.79,12.79-87.9-33.37-19.58-7.43ZM210.21,519.63l11.09-31.71,16.35,10.11-27.43,21.6ZM240.86,491.18l-14.98-9.27,118.01-163.55,14.98,9.25-118.01,163.57ZM434.17,419.52l-80.89,42.24-11.07-11.75,72.29-37.76-78.86-29.14,8.66-12.88,88.23,32.61,19.65,7.26-18.02,9.42Z"/>
  <polygon class="st1" points="343.89 318.36 225.88 481.91 240.86 491.18 358.87 327.61 343.89 318.36"/>
  <polygon class="st1" points="226.76 449.09 148.2 419.26 220.88 382.15 209.93 370.3 128.61 411.83 110.49 421.09 130.07 428.52 217.97 461.89 226.76 449.09"/>
  <polygon class="st1" points="432.54 402.84 344.31 370.23 335.65 383.12 414.5 412.25 342.21 450.01 353.28 461.76 434.17 419.52 452.19 410.1 432.54 402.84"/>
  <polygon class="st1" points="210.21 519.63 237.65 498.03 221.3 487.92 210.21 519.63"/>
  <path class="st1" d="M358.45,308.5l5.37,3.27c3.17,1.93,7.43,1.12,9.51-1.81l4.86-6.82c2.09-2.93,1.21-6.87-1.96-8.8l-5.37-3.27c-3.17-1.93-7.43-1.12-9.51,1.81l-4.86,6.82c-2.09,2.93-1.21,6.87,1.96,8.8Z"/>
  <path class="st1" d="M349.85,318.07l8.35,4.87c2.37,1.39,5.51.73,7.01-1.47s.79-5.1-1.59-6.49l-8.35-4.87c-2.37-1.39-5.51-.73-7.01,1.47-1.5,2.2-.79,5.1,1.59,6.49Z"/>
</svg>